# xmcd CD database file
#
# Track frame offsets:
#	150
#	12359
#	25243
#	34295
#	44894
#	54923
#	67003
#	76231
#	89284
#	97160
#	107990
#	118392
#	130227
#	144976
#	154900
#	168602
#	181331
#	192658
#	202637
#	212312
#	225431
#	237168
#	247172
#	257477
#	267195
#
# Disc length: 3729 seconds
#
# Revision: 0
# Processed by: cddbd v1.5.2PL0 Copyright (c) Steve Scherf et al.
# Submitted via: CDex 1.51
#
DISCID=660e8f19
DTITLE=DEAN MARTIN - THE VERY BEST OF CD-2
DYEAR=2011
DGENRE=Jazz
TTITLE0=SWAY - DEAN MARTIN
TTITLE1=THE MAN WHO PLAYS THE MANDOLINO - DEAN MARTIN
TTITLE2=JUST KISS ME - DEAN MARTIN
TTITLE3=FOR YOU - DEAN MARTIN
TTITLE4=GOOD MORNIN  LIFE - DEAN MARTIN
TTITLE5=I CAN T GIVE YOU ANYTHING BUT LOVE - DEAN MARTIN
TTITLE6=PRETTY BABY - DEAN MARTIN
TTITLE7=ONCE IN A WHILE - DEAN MARTIN
TTITLE8=YOU GOT ME CRYING AGAIN - DEAN MARTIN
TTITLE9=INNAMORATA (SWEETHEART) - DEAN MARTIN
TTITLE10=BEAU JAMES - DEAN MARTIN
TTITLE11=THE OBJECT OF MY AFFECTION - DEAN MARTIN
TTITLE12=IT S EASY TO REMEMBER - DEAN MARTIN
TTITLE13=MAKING LOVE UKALELE STYLE - DEAN MARTIN
TTITLE14=I KNOW I CAN T FORGET - DEAN MARTIN
TTITLE15=ONLY TRUST YOUR HEART - DEAN MARTIN
TTITLE16=I NEVER HAD A CHANCE - DEAN MARTIN
TTITLE17=MAYBE - DEAN MARTIN
TTITLE18=ONLY FOREVER - DEAN MARTIN
TTITLE19=I DON T KNOW WHY (I JUST DO) - DEAN MARTIN
TTITLE20=SLEEPY TIME GAL - DEAN MARTIN
TTITLE21=ME N YOU N THE MOON - DEAN MARTIN
TTITLE22=THE LOOK - DEAN MARTIN
TTITLE23=WATCHING THE WORLD GO BY - DEAN MARTIN
TTITLE24=STADING ON THE CORNER - DEAN MARTIN
EXTD=YEAR: 2011
EXTT0=
EXTT1=
EXTT2=
EXTT3=
EXTT4=
EXTT5=
EXTT6=
EXTT7=
EXTT8=
EXTT9=
EXTT10=
EXTT11=
EXTT12=
EXTT13=
EXTT14=
EXTT15=
EXTT16=
EXTT17=
EXTT18=
EXTT19=
EXTT20=
EXTT21=
EXTT22=
EXTT23=
EXTT24=
PLAYORDER=
